<?xml version="1.0" standalone="no"?>
<!DOCTYPE svg PUBLIC "-//W3C//DTD SVG 20010904//EN"
 "http://www.w3.org/TR/2001/REC-SVG-20010904/DTD/svg10.dtd">
<svg version="1.0" xmlns="http://www.w3.org/2000/svg"
 width="700.000000pt" height="700.000000pt" viewBox="0 0 700.000000 700.000000"
 preserveAspectRatio="xMidYMid meet">
<metadata>
Created by potrace 1.11, written by Peter Selinger 2001-2013
</metadata>
<g transform="translate(0.000000,700.000000) scale(0.100000,-0.100000)"
fill="#000000" stroke="none">
<path d="M3278 6995 c-1 -1 -42 -6 -89 -9 -47 -4 -94 -8 -105 -10 -10 -2 -46
-7 -79 -11 -32 -4 -68 -9 -80 -11 -59 -11 -133 -26 -155 -30 -321 -64 -763
-238 -1056 -416 l-90 -55 -73 48 c-344 226 -809 135 -1042 -204 -47 -68 -102
-185 -114 -242 -48 -236 -4 -461 125 -638 l28 -38 -56 -92 c-215 -357 -389
-832 -446 -1222 -2 -16 -8 -50 -12 -75 -7 -48 -8 -59 -21 -190 -15 -159 -8
-604 11 -707 2 -10 7 -43 10 -74 4 -31 9 -67 11 -80 3 -13 7 -37 9 -54 11 -75
62 -283 103 -415 227 -736 688 -1374 1313 -1820 161 -115 262 -176 435 -265
330 -169 693 -288 1030 -339 32 -5 104 -15 145 -22 125 -19 556 -26 725 -11
105 9 144 14 285 37 99 17 124 22 205 41 44 11 89 22 99 24 49 11 210 61 294
91 1007 364 1806 1186 2138 2200 38 115 96 337 109 414 2 14 6 34 9 46 2 12 7
45 11 75 4 30 8 56 10 59 2 3 6 39 10 80 4 41 9 89 12 105 8 59 10 512 2 597
-13 141 -22 208 -39 308 -6 36 -13 79 -16 95 -23 133 -108 425 -171 585 -102
263 -271 570 -436 793 -54 73 -167 215 -207 258 -116 126 -256 260 -406 389
-35 30 -200 154 -264 197 -104 71 -245 151 -395 225 -88 43 -168 83 -177 89
-10 5 -22 9 -28 9 -6 0 -29 9 -53 19 -40 18 -154 59 -262 94 -78 25 -231 64
-335 86 -83 17 -147 27 -370 57 -47 6 -546 15 -552 9z m470 -309 c50 -4 100
-9 111 -11 11 -2 46 -6 78 -10 32 -3 76 -10 98 -15 22 -5 58 -11 80 -15 139
-20 468 -121 612 -186 24 -10 45 -19 49 -19 12 0 284 -140 359 -185 81 -49
266 -173 275 -184 3 -4 21 -18 40 -31 107 -75 355 -310 470 -444 277 -326 481
-684 609 -1072 41 -125 86 -291 102 -379 45 -249 61 -405 62 -620 0 -103 -10
-324 -17 -363 -2 -9 -7 -46 -11 -82 -10 -89 -49 -282 -85 -417 -155 -583 -496
-1131 -956 -1538 -49 -43 -91 -82 -94 -85 -3 -3 -57 -45 -122 -93 -425 -318
-959 -537 -1468 -602 -30 -4 -63 -9 -74 -11 -118 -22 -593 -22 -726 0 -14 3
-49 7 -78 10 -187 21 -586 124 -717 186 -11 5 -58 25 -105 44 -148 60 -356
172 -515 279 -377 254 -710 599 -945 982 -140 228 -277 532 -335 740 -8 28
-23 82 -34 120 -24 87 -68 300 -77 380 -3 33 -8 69 -10 80 -22 115 -22 548 1
725 26 197 74 422 130 600 60 191 186 472 292 651 l38 66 45 -19 c340 -146
746 -21 942 288 53 83 61 100 88 184 54 169 41 390 -30 529 -22 44 -25 40 65
94 62 37 319 167 330 167 3 0 31 11 62 25 174 80 548 181 773 210 25 3 61 8
80 10 19 3 78 8 130 11 52 3 96 7 97 8 5 4 295 -2 381 -8z"/>
<path d="M3235 5764 c-150 -19 -172 -22 -265 -45 -412 -100 -773 -302 -1076
-604 -192 -192 -332 -388 -448 -627 -109 -225 -186 -493 -215 -743 -10 -82 -7
-458 4 -530 60 -397 180 -712 384 -1005 110 -159 267 -336 324 -366 93 -50
217 25 217 130 0 54 -21 90 -100 173 -138 145 -248 305 -340 495 -80 167 -146
370 -166 511 -2 15 -6 39 -9 55 -25 124 -25 450 -1 582 3 14 10 53 16 87 73
418 328 849 667 1133 152 127 351 249 501 309 28 12 74 30 101 41 50 20 258
76 317 86 181 29 424 37 569 20 459 -55 870 -256 1195 -586 103 -105 224 -257
281 -355 84 -144 199 -403 199 -447 0 -7 -26 -26 -58 -43 -90 -47 -203 -167
-250 -267 -116 -245 -72 -509 116 -697 46 -46 100 -89 134 -107 32 -16 58 -35
58 -42 0 -22 -71 -204 -112 -287 -304 -613 -911 -1037 -1578 -1103 -221 -21
-524 3 -716 58 -90 26 -118 25 -170 -5 -97 -57 -94 -209 4 -259 58 -29 271
-76 409 -91 32 -4 74 -8 93 -11 45 -5 312 -5 365 1 162 18 183 21 303 46 783
168 1427 750 1682 1521 l31 97 57 11 c173 36 336 161 417 321 181 356 -16 780
-407 875 -64 16 -75 25 -83 64 -10 52 -88 247 -142 354 -117 234 -245 411
-432 597 -178 178 -330 291 -543 404 -265 140 -507 214 -833 255 -93 12 -389
8 -500 -6z"/>
<path d="M3395 4558 c-94 -10 -121 -15 -182 -34 -32 -9 -64 -18 -71 -20 -39
-8 -211 -102 -280 -154 -469 -353 -564 -1021 -212 -1488 428 -568 1280 -567
1704 3 347 466 254 1127 -208 1479 -152 116 -341 194 -516 212 -90 9 -171 10
-235 2z"/>
<path d="M2371 1818 c-51 -14 -77 -35 -100 -80 -50 -102 19 -213 134 -213 114
0 182 107 135 212 -28 62 -103 98 -169 81z"/>
</g>
</svg>
