<svg xmlns="http://www.w3.org/2000/svg" viewBox="0 0 24 24" width="18" height="18"><path d="M22.65 14.39L12 22.13L1.35 14.39C0.9 14.03 0.66 13.5 0.66 12.94C0.66 12.38 0.9 11.85 1.35 11.49L3.5 9.78L1.5 3.17C1.44 2.95 1.5 2.72 1.66 2.56C1.82 2.4 2.05 2.34 2.28 2.4L5 3.24L7.5 9.78L12 13.15L16.5 9.78L19 3.24L21.72 2.4C21.95 2.34 22.18 2.4 22.34 2.56C22.5 2.72 22.56 2.95 22.5 3.17L20.5 9.78L22.65 11.49C23.1 11.85 23.34 12.38 23.34 12.94C23.34 13.5 23.1 14.03 22.65 14.39ZM12 20.3L21.2 13.58C21.37 13.45 21.46 13.24 21.46 13.01C21.46 12.78 21.37 12.57 21.2 12.44L19.55 11.15L17.85 5.59L16.5 5.96L14.3 11.67L12 13.5L9.7 11.67L7.5 5.96L6.15 5.59L4.45 11.15L2.8 12.44C2.63 12.57 2.54 12.78 2.54 13.01C2.54 13.24 2.63 13.45 2.8 13.58L12 20.3Z" fill="currentColor"></path></svg>
